<svg width="362" height="324" viewBox="0 0 362 324" fill="none" xmlns="http://www.w3.org/2000/svg">
<g id="picture.png 1" clip-path="url(#clip0)">
<path id="Vector" d="M166.577 11.1352C166.796 11.701 166.959 12.2925 167.064 12.8989C166.827 11.9739 166.64 11.346 166.577 11.1352Z" fill="#3F3D56"/>
<path id="Vector_2" d="M174.085 40.4387C174.085 40.4387 174.085 41.1001 173.455 43.487L174.085 40.4387Z" fill="#3F3D56"/>
<path id="Vector_3" d="M251.364 140.279C234.718 150.105 212.942 158.588 206.42 161.047C211.393 159.58 225.868 157.605 248.295 173.451C276.474 193.355 306.604 180.084 306.604 180.084C306.604 180.084 299.909 194.621 285.68 195.565C271.45 196.514 234.345 169.976 221.792 177.558C209.235 185.14 203.377 175.66 198.353 194.621C193.334 213.576 184.129 265.387 194.731 294.456L205.328 323.52H145.068C145.068 323.52 166.831 257.805 154.832 217.368C148.115 194.721 138.686 178.32 135.169 169.985C133.404 165.811 133.124 163.664 135.41 163.769C136.709 163.831 138.838 164.622 142 166.185C142 166.185 127.491 150.071 122.751 150.071C118.006 150.071 95.685 147.545 88.435 139.014C88.435 139.014 78.1123 130.799 59.6973 151.02C41.2823 171.241 45.7475 171.241 29.2879 169.659C13.0864 168.102 0.393578 159.201 -3.05176e-05 158.923C0.469761 159.139 19.3926 167.704 30.9596 163.342C42.679 158.919 52.7224 142.172 63.0451 136.488C73.3678 130.799 79.5047 123.217 93.4546 131.432L84.2619 106.887L81.7436 100.163L81.7394 100.153C81.7394 100.153 78.6667 54.0269 72.8092 50.8685C66.9516 47.7052 70.5787 39.495 59.6973 37.9134C59.6973 37.9134 73.0885 36.0154 75.5983 46.4446C78.1123 56.8691 95.4099 113.109 95.4099 113.109C95.4099 113.109 106.008 137.116 117.727 131.432C129.447 125.743 113.262 93.8364 113.262 93.8364L93.1753 83.4072C93.1753 83.4072 108.242 82.7745 117.448 92.5711C126.653 102.363 127.212 133.957 127.212 133.957C127.212 133.957 150.367 137.749 155.95 151.969C155.95 151.969 159.577 139.33 152.602 131.748C150.858 129.85 149.025 126.553 147.261 122.675C140.57 107.793 138.153 90.9156 140.345 74.4014C141.382 66.3206 142.021 58.4172 140.882 56.5528C138.373 52.4453 127.771 27.1726 126.933 20.5344C126.099 13.9011 127.771 0.00183105 127.771 0.00183105C127.771 0.00183105 128.05 17.0596 131.398 22.4324C134.745 27.8052 144.23 54.3433 144.23 54.3433C144.23 54.3433 144.23 87.831 152.043 104.261C159.856 120.691 174.919 139.014 174.085 151.02V157.97C174.085 157.97 190.824 139.963 189.707 133.957C188.589 127.957 187.197 113.736 176.595 105.21C165.993 96.6786 159.018 83.0909 166.552 63.5024C170.788 52.4836 172.642 46.5645 173.455 43.4922L169.061 64.7677C169.061 64.7677 166.272 86.5657 174.085 94.148C174.106 94.1671 174.123 94.1863 174.144 94.2055C181.945 101.797 192.217 115.634 192.217 115.634L192.187 115.026L189.986 70.1405L190.469 71.3388L193.948 79.9755L197.24 88.1473C197.24 88.1473 212.862 65.4004 231.277 57.8181C249.688 50.2358 261.128 23.6977 261.128 23.6977L276.754 9.79364L263.917 27.1726C263.917 27.1726 260.01 47.7052 237.973 62.2419C215.93 76.7739 201.705 98.2555 200.867 111.527C200.029 124.798 199.191 136.488 199.191 136.488C199.191 136.488 240.482 134.906 249.688 114.369C258.897 93.8364 266.431 92.8875 266.431 92.8875L261.128 110.578L255.27 125.743C255.27 125.743 279.263 126.375 291.817 142.489C304.374 158.602 335.617 163.342 335.617 163.342L318.044 168.71C318.044 168.71 301.301 162.394 285.4 150.704C269.499 139.014 271.171 128.589 251.364 140.279Z" fill="#3F3D56"/>
<path id="Vector_4" opacity="0.1" d="M260.26 97.1718C258.495 106.019 256.417 114.565 253.497 121.079C244.291 141.616 203.001 143.198 203.001 143.198C203.001 143.198 203.195 140.485 203.492 136.205C213.975 135.227 242.632 131.053 250.111 114.369C250.797 112.844 251.431 111.205 252.032 109.48L260.26 97.1718Z" fill="black"/>
<path id="Vector_5" opacity="0.1" d="M196.026 122.344C196.026 122.344 185.703 108.44 177.894 100.857C176.18 99.1992 174.978 96.8506 174.144 94.205C174.077 93.9941 174.013 93.7784 173.95 93.5628C174.132 93.7641 174.314 93.9606 174.508 94.1475C181.344 100.786 190.109 112.269 192.187 115.025C192.479 115.418 192.64 115.634 192.64 115.634L190.469 71.3383L193.948 79.975L196.026 122.344Z" fill="black"/>
<path id="Vector_6" opacity="0.1" d="M202.001 82.4517C201.94 90.2304 201.049 94.8568 201.049 94.8568C201.049 94.8568 216.666 72.119 235.074 64.5316C236.162 63.7522 237.266 62.9848 238.395 62.2399C260.436 47.7067 264.342 27.1707 264.342 27.1707L277.175 9.7941L261.552 23.6954C261.552 23.6954 250.113 50.2342 231.7 57.8167C219.148 62.9853 207.895 75.1982 202.001 82.4517Z" fill="black"/>
<path id="Vector_7" opacity="0.1" d="M177.892 157.729V164.679C177.892 164.679 194.632 146.671 193.516 140.668C192.663 136.077 191.641 126.684 186.468 118.702C188.799 124.734 189.509 130.618 190.13 133.958C190.93 138.262 182.549 148.74 177.743 154.324C177.912 155.448 177.962 156.591 177.892 157.729V157.729Z" fill="black"/>
<path id="Vector_8" opacity="0.1" d="M155.438 110.03C155.571 110.35 155.707 110.665 155.852 110.97C160.13 119.967 166.58 129.531 171.406 138.317C167.506 129.616 160.718 119.668 155.438 110.03Z" fill="black"/>
<path id="Vector_9" opacity="0.1" d="M248.718 173.45C239.54 166.967 231.696 163.469 225.288 161.697C218.566 164.562 213.034 166.698 210.25 167.747C215.242 166.283 229.707 164.339 252.104 180.16C269.677 192.573 288.008 192.084 299.318 189.957C302.446 187.285 305.068 183.928 307.027 180.085C307.027 180.085 276.896 193.354 248.718 173.45Z" fill="black"/>
<path id="Vector_10" opacity="0.1" d="M169.04 96.579C166.79 90.3365 166.419 82.9085 169.004 74.2043C168.971 71.0499 169.132 67.8967 169.485 64.7674L173.878 43.4865C173.068 46.5554 171.215 52.4758 166.974 63.5036C161.605 77.4644 163.609 88.3735 169.04 96.579Z" fill="black"/>
<path id="Vector_11" opacity="0.1" d="M292.241 142.488C283.534 131.314 269.328 127.586 261.437 126.35L259.079 132.453C259.079 132.453 283.072 133.085 295.627 149.198C302.589 158.133 315.297 163.57 325.24 166.641L336.042 163.34C336.042 163.34 304.795 158.601 292.241 142.488Z" fill="black"/>
<path id="Vector_12" opacity="0.1" d="M121.536 138.14C133.254 132.453 117.073 100.544 117.073 100.544L116.63 100.314C120.664 109.953 126.515 127.371 118.151 131.43C110.324 135.229 102.996 125.779 98.992 119.083C99.1374 119.557 99.2172 119.816 99.2172 119.816C99.2172 119.816 109.819 143.827 121.536 138.14Z" fill="black"/>
<path id="Vector_13" opacity="0.1" d="M159.758 158.676C159.758 158.676 163.289 146.352 156.656 138.742C158.282 145.298 156.372 151.966 156.372 151.966C152.056 140.968 137.224 136.21 130.727 134.619C130.979 138.281 131.022 140.668 131.022 140.668C131.022 140.668 154.178 144.459 159.758 158.676Z" fill="black"/>
<path id="Vector_14" opacity="0.1" d="M173.878 43.4865C174.506 41.1043 174.507 40.4401 174.507 40.4401L173.878 43.4865Z" fill="black"/>
<path id="Vector_15" opacity="0.1" d="M34.601 170.11C34.6573 170.09 34.7144 170.071 34.7703 170.05C46.4879 165.627 56.5316 148.882 66.8543 143.195C77.1769 137.508 83.3147 129.926 97.2642 138.14C97.2642 138.14 94.8237 126.828 90.0946 119.396C91.661 123.276 92.927 127.302 93.8783 131.43C79.9288 123.216 73.791 130.798 63.4684 136.485C53.1458 142.172 43.102 158.917 31.3844 163.34C19.6668 167.763 0.416473 158.917 0.416473 158.917C0.416473 158.917 13.25 168.079 29.7105 169.659C31.5935 169.84 33.2001 169.999 34.601 170.11Z" fill="black"/>
<path id="Vector_16" opacity="0.1" d="M85.5486 106.863C85.5486 106.863 85.0915 106.873 84.2619 106.887L81.7437 100.163C82.0188 100.158 82.1627 100.153 82.1627 100.153C82.1627 100.153 80.2243 71.0603 76.4913 57.5013C76.5379 57.5253 76.576 57.554 76.6183 57.578C82.4759 60.7365 85.5486 106.863 85.5486 106.863Z" fill="black"/>
<path id="Vector_17" opacity="0.1" d="M150.916 323.521C156.027 305.775 168.321 256.703 158.642 224.076C154.462 209.985 150.588 201 147.313 195.268C149.762 200.694 152.44 207.872 155.256 217.366C167.253 257.806 145.492 323.521 145.492 323.521H150.916Z" fill="black"/>
<path id="Vector_18" opacity="0.1" d="M145.809 172.894C142.442 171.218 138.84 170.233 135.169 169.985C133.404 165.81 133.124 163.663 135.41 163.769C136.045 163.898 136.684 164.051 137.319 164.229C141.805 168.446 145.809 172.894 145.809 172.894Z" fill="black"/>
<path id="Vector_19" opacity="0.1" d="M70.2804 47.799C70.5987 48.4059 70.9843 48.9641 71.4277 49.46C71.102 48.859 70.7171 48.3018 70.2804 47.799V47.799Z" fill="black"/>
<path id="Vector_20" opacity="0.1" d="M121.257 99.2799C121.689 99.7417 122.093 100.235 122.467 100.757C121.245 97.4297 119.736 94.5528 117.872 92.5699C108.665 82.7759 93.5994 83.4077 93.5994 83.4077L112.493 93.2142C115.731 94.5819 118.706 96.6411 121.257 99.2799Z" fill="black"/>
<path id="Vector_21" opacity="0.1" d="M141.307 56.553C142.445 58.4153 141.806 66.3189 140.766 74.4021C138.575 90.9156 140.993 107.792 147.684 122.673C148.573 124.664 149.566 126.594 150.657 128.452C144.281 113.791 142.011 97.2739 144.152 81.1121C145.191 73.0289 145.831 65.1253 144.693 63.263C142.182 59.1558 131.58 33.8807 130.743 27.246C130.492 24.672 130.434 22.0787 130.568 19.4936C128.401 12.5303 128.194 0 128.194 0C128.194 0 126.52 13.9013 127.357 20.536C128.194 27.1706 138.796 52.4458 141.307 56.553Z" fill="black"/>
<path id="Vector_22" opacity="0.1" d="M167.48 12.8757C167.369 12.2512 167.199 11.6419 166.974 11.0579C166.974 11.0579 167.188 11.7397 167.48 12.8757Z" fill="black"/>
<path id="Vector_23" opacity="0.1" d="M68.9397 44.6948C71.3985 45.0356 74.2268 45.8899 76.3842 47.8712C76.2435 47.3322 76.1207 46.849 76.023 46.443C73.512 36.017 60.1205 37.9126 60.1205 37.9126C66.1723 38.7912 67.7355 41.7225 68.9397 44.6948Z" fill="black"/>
<path id="Vector_24" d="M332.034 307.288C327.873 314.514 329.013 323.704 329.013 323.704C329.013 323.704 336.9 321.179 341.06 313.954C345.221 306.728 344.081 297.537 344.081 297.537C344.081 297.537 336.195 300.062 332.034 307.288Z" fill="#3F3D56"/>
<path id="Vector_25" d="M335.16 308.566C334.831 317.184 329.181 323.907 329.181 323.907C329.181 323.907 324.065 316.657 324.394 308.039C324.723 299.421 330.372 292.698 330.372 292.698C330.372 292.698 335.489 299.947 335.16 308.566Z" fill="#6C63FF"/>
<path id="ending" d="M261.875 254.027C261.875 254.027 266.663 248.339 268.622 249.483C270.582 250.627 262.988 255.713 262.988 255.713L261.875 254.027Z" fill="#FFB9B9"/>
<path id="Vector_26" opacity="0.1" d="M261.875 254.027C261.875 254.027 266.663 248.339 268.622 249.483C270.582 250.627 262.988 255.713 262.988 255.713L261.875 254.027Z" fill="black"/>
<path id="Vector_27" d="M247.268 241.612C247.268 241.612 245.508 245.185 245.968 249.036C246.429 252.887 250.64 265.244 252.072 265.024C253.504 264.805 264.11 255.954 264.11 255.954L262.088 252.755L254.339 258.072C254.339 258.072 253.159 239.058 247.268 241.612Z" fill="#D0CDE1"/>
<path id="Vector_28" d="M275.998 250.309L263.919 257.822C263.849 257.875 263.769 257.909 263.686 257.924C263.603 257.938 263.518 257.931 263.438 257.904C263.357 257.877 263.283 257.831 263.22 257.768C263.157 257.705 263.106 257.627 263.073 257.54L260.114 250.536C260.058 250.336 260.067 250.12 260.14 249.927C260.212 249.735 260.344 249.578 260.51 249.486L270.538 243.632C270.662 243.548 270.808 243.518 270.95 243.549C271.091 243.58 271.218 243.668 271.306 243.798L276.315 249.142C276.364 249.242 276.395 249.352 276.406 249.465C276.416 249.579 276.407 249.693 276.377 249.803C276.347 249.912 276.298 250.013 276.233 250.1C276.168 250.187 276.088 250.258 275.998 250.309V250.309Z" fill="#2F2E41"/>
<path id="Vector_29" d="M275.191 249.274L263.868 256.603L260.854 250.453L270.568 244.471L275.191 249.274Z" fill="#6C63FF"/>
<path id="Vector_30" d="M265.691 247.155C265.75 247.075 265.749 246.964 265.688 246.907C265.628 246.851 265.531 246.869 265.472 246.949C265.413 247.029 265.414 247.14 265.475 247.197C265.535 247.254 265.632 247.236 265.691 247.155Z" fill="#F2F2F2"/>
<path id="Vector_31" d="M269.859 253.413C269.899 253.36 269.898 253.286 269.858 253.248C269.817 253.209 269.753 253.222 269.713 253.276C269.674 253.329 269.675 253.403 269.715 253.441C269.755 253.479 269.82 253.467 269.859 253.413Z" fill="#F2F2F2"/>
<path id="Vector_32" opacity="0.1" d="M247.268 241.612C247.268 241.612 245.508 245.185 245.968 249.036C246.429 252.887 250.64 265.244 252.072 265.024C253.504 264.805 264.11 255.954 264.11 255.954L262.088 252.755L254.339 258.072C254.339 258.072 253.159 239.058 247.268 241.612Z" fill="black"/>
<path id="Vector_33" d="M258.638 255.113C258.638 255.113 264.057 250.205 265.863 251.636C267.669 253.068 259.541 256.954 259.541 256.954L258.638 255.113Z" fill="#FFB9B9"/>
<path id="Vector_34" d="M251.414 235.478C254.306 235.478 256.651 232.823 256.651 229.547C256.651 226.271 254.306 223.615 251.414 223.615C248.521 223.615 246.176 226.271 246.176 229.547C246.176 232.823 248.521 235.478 251.414 235.478Z" fill="#FFB9B9"/>
<path id="Vector_35" d="M269.475 270.862C269.475 270.862 275.074 271.68 274.893 275.567C274.713 279.453 270.559 295.611 270.559 295.611L270.198 301.951C270.198 301.951 270.559 312.587 269.475 312.382C268.391 312.178 265.863 304.815 265.863 304.815C265.863 304.815 262.792 302.565 264.237 300.52C265.682 298.474 266.766 298.679 266.405 296.429C266.043 294.179 266.224 284.771 267.308 281.907C268.391 279.044 269.023 277.464 269.023 277.464L265.502 277.203L269.475 270.862Z" fill="#FFB9B9"/>
<path id="Vector_36" opacity="0.1" d="M269.475 270.862C269.475 270.862 275.074 271.68 274.893 275.567C274.713 279.453 270.559 295.611 270.559 295.611L270.198 301.951C270.198 301.951 270.559 312.587 269.475 312.382C268.391 312.178 265.863 304.815 265.863 304.815C265.863 304.815 262.792 302.565 264.237 300.52C265.682 298.474 266.766 298.679 266.405 296.429C266.043 294.179 266.224 284.771 267.308 281.907C268.391 279.044 269.023 277.464 269.023 277.464L265.502 277.203L269.475 270.862Z" fill="black"/>
<path id="Vector_37" d="M269.836 271.885C269.836 271.885 275.255 273.317 275.797 277.407C276.338 281.498 279.048 293.565 279.048 293.565L281.937 301.133C281.937 301.133 286.453 310.337 284.466 310.133C282.479 309.928 279.77 305.428 278.867 305.428C277.964 305.428 275.255 304.201 275.435 303.383C275.616 302.565 276.88 300.11 276.88 300.11L272.511 291.491C271.667 289.827 271.029 288.039 270.615 286.179C270.166 284.16 269.656 281.687 269.656 280.884C269.656 279.453 266.043 278.839 266.043 278.839L269.836 271.885Z" fill="#FFB9B9"/>
<path id="Vector_38" d="M252.136 258.795L254.665 266.976C254.665 266.976 258.638 268.203 261.528 269.226C264.418 270.249 269.836 268.817 270.378 271.271C270.92 273.726 269.294 278.021 267.669 279.044C266.043 280.066 265.14 281.089 259.903 279.453C254.665 277.816 242.202 277.407 242.202 277.407C240.994 278.228 239.634 278.718 238.229 278.839C235.881 279.044 235.339 279.248 234.617 278.635C233.894 278.021 234.978 278.021 235.339 276.385C235.7 274.748 235.881 275.362 237.507 273.521C239.132 271.68 240.396 266.158 241.299 264.317C242.202 262.477 242.744 258.795 242.744 258.795H252.136Z" fill="#2F2E41"/>
<path id="Vector_39" d="M251.775 234.456C251.119 234.998 250.582 235.705 250.206 236.521C249.83 237.337 249.625 238.24 249.608 239.16C249.608 242.228 244.189 235.887 244.189 235.887C244.189 235.887 247.079 231.797 247.079 230.569C247.079 229.342 251.775 234.456 251.775 234.456Z" fill="#FFB9B9"/>
<path id="Vector_40" d="M244.912 233.228C244.912 233.228 248.163 234.66 248.885 236.705C249.608 238.751 252.317 243.046 252.317 243.046C252.317 243.046 256.11 247.546 254.845 252.454C253.581 257.363 252.497 258.59 252.497 259.408C252.497 260.227 250.691 261.658 249.246 261.454C247.801 261.249 242.383 260.431 242.022 259.613C241.661 258.795 239.493 247.137 240.938 242.841C242.11 239.559 243.437 236.35 244.912 233.228V233.228Z" fill="#D0CDE1"/>
<path id="Vector_41" d="M252.933 229.817C254.105 230.132 255.255 229.286 256.216 228.448C256.761 227.971 257.361 227.292 257.194 226.526C257.046 225.846 256.339 225.461 256.236 224.77C256.164 224.29 256.412 223.823 256.432 223.336C256.414 222.965 256.307 222.607 256.121 222.301C255.936 221.995 255.68 221.752 255.381 221.599C254.81 221.251 254.162 221.106 253.575 220.794C252.679 220.318 251.935 219.461 250.978 219.186C249.671 218.81 248.34 219.61 246.996 219.713C246.183 219.776 245.359 219.582 244.555 219.733C243.787 219.908 243.095 220.371 242.588 221.047C242.082 221.723 241.791 222.572 241.763 223.458C241.752 224.109 241.867 224.836 241.524 225.352C241.389 225.53 241.234 225.688 241.064 225.823C239.869 226.917 239.327 228.746 239.265 230.507C239.235 231.374 239.395 232.404 240.074 232.773C240.438 232.914 240.823 232.974 241.207 232.951C241.4 232.942 241.592 232.986 241.766 233.081C241.94 233.175 242.091 233.316 242.206 233.492C242.516 234.11 242.052 235.023 242.457 235.562C242.761 235.967 243.354 235.833 243.709 235.487C244.064 235.142 244.285 234.646 244.622 234.276C245.277 233.558 246.248 233.428 247.145 233.319C247.411 233.317 247.67 233.221 247.885 233.044C248.048 232.85 248.154 232.604 248.189 232.339C248.307 231.73 248.308 231.099 248.193 230.489C248.136 230.3 248.129 230.097 248.172 229.903C248.232 229.766 248.323 229.649 248.437 229.567C248.994 229.094 249.968 228.405 250.691 228.535C251.493 228.68 252.124 229.599 252.933 229.817Z" fill="#2F2E41"/>
<path id="Vector_42" d="M245.634 240.592C245.634 240.592 243.467 243.864 243.467 247.75C243.467 251.636 246.176 264.522 247.621 264.522C249.066 264.522 260.625 257.363 260.625 257.363L258.999 253.886L250.691 257.977C250.691 257.977 251.775 238.955 245.634 240.592Z" fill="#D0CDE1"/>
<path id="Vector_43" d="M270.158 277.509H228.681V286.616H270.158V277.509Z" fill="#6C63FF"/>
<path id="Vector_44" d="M252.805 280.312H251.959V175.421C251.959 174.994 251.876 174.572 251.714 174.186C251.551 173.8 251.315 173.46 251.022 173.191L251.557 172.448C251.948 172.807 252.262 173.26 252.478 173.775C252.694 174.289 252.806 174.852 252.805 175.421V280.312Z" fill="#3F3D56"/>
<path id="starting" d="M249.419 287.095C248.522 287.094 247.661 286.69 247.026 285.971C246.392 285.252 246.035 284.277 246.033 283.261V175.421C246.034 174.696 246.215 173.986 246.557 173.373C246.899 172.76 247.387 172.27 247.966 171.958C248.544 171.647 249.188 171.528 249.824 171.615C250.46 171.701 251.061 171.99 251.557 172.448L251.022 173.191C250.65 172.848 250.199 172.631 249.722 172.566C249.246 172.501 248.763 172.591 248.329 172.824C247.895 173.058 247.529 173.426 247.272 173.885C247.016 174.345 246.88 174.878 246.88 175.421V283.261C246.881 284.023 247.148 284.754 247.625 285.293C248.101 285.832 248.746 286.136 249.419 286.136V287.095Z" fill="#3F3D56"/>
<path id="Vector_45" d="M362 323.041H20.8723V324H362V323.041Z" fill="#3F3D56"/>
<path id="Vector_46" d="M243.019 226.868C243.202 226.702 242.993 226.066 242.554 225.446C242.115 224.827 241.611 224.46 241.429 224.625C241.247 224.791 241.455 225.427 241.894 226.047C242.333 226.666 242.837 227.033 243.019 226.868Z" fill="#6C63FF"/>
<path id="Vector_47" d="M206.757 307.288C202.596 314.514 203.736 323.704 203.736 323.704C203.736 323.704 211.622 321.179 215.783 313.954C219.944 306.728 218.803 297.537 218.803 297.537C218.803 297.537 210.917 300.062 206.757 307.288Z" fill="#3F3D56"/>
<path id="Vector_48" d="M209.882 308.566C209.553 317.184 203.904 323.907 203.904 323.907C203.904 323.907 198.788 316.657 199.116 308.039C199.445 299.421 205.095 292.698 205.095 292.698C205.095 292.698 210.211 299.947 209.882 308.566Z" fill="#6C63FF"/>
<path id="Vector_49" d="M138.282 310.022C140.271 318.349 147.084 323.506 147.084 323.506C147.084 323.506 150.673 315.162 148.683 306.835C146.694 298.508 139.881 293.351 139.881 293.351C139.881 293.351 136.293 301.695 138.282 310.022Z" fill="#3F3D56"/>
<path id="Vector_50" d="M141.205 308.232C146.663 314.249 147.33 323.499 147.33 323.499C147.33 323.499 139.147 322.993 133.688 316.976C128.23 310.959 127.563 301.709 127.563 301.709C127.563 301.709 135.746 302.215 141.205 308.232Z" fill="#6C63FF"/>
<path id="Vector_51" d="M123.113 82.4595C122.639 91.0691 116.877 97.6685 116.877 97.6685C116.877 97.6685 111.884 90.309 112.359 81.6994C112.833 73.0898 118.595 66.4904 118.595 66.4904C118.595 66.4904 123.588 73.8499 123.113 82.4595Z" fill="#6C63FF"/>
<path id="Vector_52" d="M63.0494 28.0311C69.4932 32.6317 71.8435 41.5224 71.8435 41.5224C71.8435 41.5224 63.7463 42.9541 57.3025 38.3535C50.8587 33.7529 48.5084 24.8622 48.5084 24.8622C48.5084 24.8622 56.6056 23.4305 63.0494 28.0311Z" fill="#6C63FF"/>
<path id="Vector_53" d="M48.6594 132.995C55.1032 137.595 57.4535 146.486 57.4535 146.486C57.4535 146.486 49.3564 147.918 42.9126 143.317C36.4688 138.717 34.1184 129.826 34.1184 129.826C34.1184 129.826 42.2156 128.394 48.6594 132.995Z" fill="#6C63FF"/>
<path id="Vector_54" d="M179.659 43.3759C177.716 51.7169 170.931 56.9221 170.931 56.9221C170.931 56.9221 167.297 48.6039 169.24 40.263C171.183 31.922 177.968 26.7168 177.968 26.7168C177.968 26.7168 181.602 35.035 179.659 43.3759Z" fill="#6C63FF"/>
<path id="Vector_55" d="M240.959 49.8795C238.675 58.109 231.683 62.9509 231.683 62.9509C231.683 62.9509 228.395 54.4502 230.679 46.2207C232.963 37.9913 239.954 33.1494 239.954 33.1494C239.954 33.1494 243.243 41.6501 240.959 49.8795Z" fill="#6C63FF"/>
<path id="Vector_56" d="M307.214 141.47C303.076 148.713 295.199 151.271 295.199 151.271C295.199 151.271 294.029 142.085 298.166 134.842C302.303 127.599 310.181 125.041 310.181 125.041C310.181 125.041 311.351 134.227 307.214 141.47Z" fill="#6C63FF"/>
</g>
<defs>
<clipPath id="clip0">
<rect width="362" height="324" fill="white"/>
</clipPath>
</defs>
</svg>
