<svg width="372" height="277" viewBox="0 0 372 277" fill="none" xmlns="http://www.w3.org/2000/svg">
<g clip-path="url(#clip0)">
<path d="M371.323 243.428H0.322632V243.614H371.323V243.428Z" fill="#EBEBEB"/>
<path d="M334.148 255.389H294.771V255.575H334.148V255.389Z" fill="#EBEBEB"/>
<path d="M246.088 253.062H202.562V253.248H246.088V253.062Z" fill="#EBEBEB"/>
<path d="M296.67 251.984H282.431V252.17H296.67V251.984Z" fill="#EBEBEB"/>
<path d="M106.918 249.739H74.8713V249.925H106.918V249.739Z" fill="#EBEBEB"/>
<path d="M70.7385 249.739H59.282V249.925H70.7385V249.739Z" fill="#EBEBEB"/>
<path d="M138.09 252.877H97.8734V253.062H138.09V252.877Z" fill="#EBEBEB"/>
<path d="M176.184 210.272H32.9113C30.574 210.272 28.6744 208.369 28.6744 206.027V4.24484C28.6744 1.90312 30.574 0 32.9113 0H176.191C178.529 0 180.428 1.90312 180.428 4.24484V206.027C180.421 208.369 178.521 210.272 176.184 210.272ZM32.9113 0.185851C30.6778 0.185851 28.8599 2.00719 28.8599 4.24484V206.027C28.8599 208.265 30.6778 210.086 32.9113 210.086H176.191C178.425 210.086 180.243 208.265 180.243 206.027V4.24484C180.243 2.00719 178.425 0.185851 176.191 0.185851H32.9113Z" fill="#EBEBEB"/>
<path d="M336.679 210.272H193.398C191.061 210.272 189.162 208.369 189.162 206.027V4.24484C189.162 1.90312 191.061 0 193.398 0H336.679C339.016 0 340.915 1.90312 340.915 4.24484V206.027C340.915 208.369 339.016 210.272 336.679 210.272ZM193.398 0.185851C191.165 0.185851 189.347 2.00719 189.347 4.24484V206.027C189.347 208.265 191.165 210.086 193.398 210.086H336.679C338.912 210.086 340.73 208.265 340.73 206.027V4.24484C340.73 2.00719 338.912 0.185851 336.679 0.185851H193.398Z" fill="#EBEBEB"/>
<path d="M198.224 237.134H206.022V144.186H198.224V237.134Z" fill="#F0F0F0"/>
<path d="M48.3602 243.329L203.023 243.329V237.136L48.3602 237.136V243.329Z" fill="#F0F0F0"/>
<path d="M198.221 144.191H45.3694V237.139H198.221V144.191Z" fill="#F5F5F5"/>
<path d="M200.061 144.185H208.119V138.327H200.061V144.185Z" fill="#E0E0E0"/>
<path d="M200.062 138.332H43.277V144.19H200.062V138.332Z" fill="#EBEBEB"/>
<path d="M186.32 183.465H57.2712C54.0806 183.465 51.4984 180.878 51.4984 177.681V157.178C51.4984 153.981 54.0806 151.394 57.2712 151.394H186.32C189.51 151.394 192.093 153.981 192.093 157.178V177.681C192.093 180.878 189.51 183.465 186.32 183.465Z" fill="white"/>
<path d="M186.32 225.103H57.2712C54.0806 225.103 51.4984 222.516 51.4984 219.319V198.816C51.4984 195.62 54.0806 193.032 57.2712 193.032H186.32C189.51 193.032 192.093 195.62 192.093 198.816V219.319C192.093 222.516 189.51 225.103 186.32 225.103Z" fill="white"/>
<path d="M88.5687 154.829H155.022C155.742 154.829 156.336 154.242 156.336 153.513V151.744C156.336 151.023 155.749 150.428 155.022 150.428H88.5687C87.849 150.428 87.2554 151.015 87.2554 151.744V153.513C87.2554 154.234 87.849 154.829 88.5687 154.829Z" fill="#F5F5F5"/>
<path d="M88.5687 196.46H155.022C155.742 196.46 156.336 195.865 156.336 195.144V193.374C156.336 192.653 155.749 192.059 155.022 192.059H88.5687C87.849 192.059 87.2554 192.646 87.2554 193.374V195.144C87.2554 195.872 87.849 196.46 88.5687 196.46Z" fill="#F5F5F5"/>
<path d="M332.138 174.678H308.616V179.183H332.138V174.678Z" fill="#E6E6E6"/>
<path d="M290.594 243.425H294.935V89.2427H290.594V243.425Z" fill="#E6E6E6"/>
<path d="M275.557 179.189H308.621V174.684H275.557V179.189Z" fill="#F5F5F5"/>
<path d="M332.138 216.167H308.616V220.672H332.138V216.167Z" fill="#E6E6E6"/>
<path d="M275.557 220.669H308.621V216.164H275.557V220.669Z" fill="#F5F5F5"/>
<path d="M332.138 91.7139H308.616V96.2189H332.138V91.7139Z" fill="#E6E6E6"/>
<path d="M275.557 96.2138H308.621V91.7088H275.557V96.2138Z" fill="#F5F5F5"/>
<path d="M332.138 133.196H308.616V137.701H332.138V133.196Z" fill="#E6E6E6"/>
<path d="M275.557 137.701H308.621V133.196H275.557V137.701Z" fill="#F5F5F5"/>
<path d="M323.656 243.425H327.997V89.2427H323.656V243.425Z" fill="#E6E6E6"/>
<path d="M304.278 243.425H308.619V89.2427H304.278V243.425Z" fill="#F5F5F5"/>
<path d="M275.559 243.425H279.9V89.2427H275.559V243.425Z" fill="#F5F5F5"/>
<path d="M65.5339 125.399L261.57 125.399V21.1214L65.5339 21.1214V125.399Z" fill="#E0E0E0"/>
<path d="M60.5865 125.399L258.775 125.399V21.1214L60.5865 21.1214V125.399Z" fill="#F5F5F5"/>
<path d="M251.675 117.184L251.675 29.3435L67.689 29.3435L67.689 117.184L251.675 117.184Z" fill="white"/>
<path d="M185.823 277C265.278 277 329.689 273.232 329.689 268.585C329.689 263.937 265.278 260.169 185.823 260.169C106.367 260.169 41.9563 263.937 41.9563 268.585C41.9563 273.232 106.367 277 185.823 277Z" fill="#F5F5F5"/>
<path d="M288.085 155.572H82.3433C80.9854 155.572 79.8724 154.457 79.8724 153.097C79.8724 151.736 80.9854 150.621 82.3433 150.621H288.085C289.443 150.621 290.556 151.736 290.556 153.097C290.556 154.457 289.443 155.572 288.085 155.572Z" fill="#407BFF"/>
<path opacity="0.3" d="M288.085 155.572H239.922C238.564 155.572 237.451 154.457 237.451 153.097C237.451 151.736 238.564 150.621 239.922 150.621H288.085C289.443 150.621 290.556 151.736 290.556 153.097C290.556 154.457 289.443 155.572 288.085 155.572Z" fill="#263238"/>
<path d="M282.861 161.78H124.63V179.034H282.861V161.78Z" fill="#263238"/>
<path opacity="0.1" d="M282.861 161.78H124.63V179.034H282.861V161.78Z" fill="white"/>
<path d="M280.554 265.15H285.295L285.102 155.572H278.543L280.554 265.15Z" fill="#263238"/>
<path opacity="0.1" d="M280.554 265.15H285.295L285.102 155.572H278.543L280.554 265.15Z" fill="white"/>
<path d="M236.932 265.15H232.19L242.905 155.572H249.464L236.932 265.15Z" fill="#263238"/>
<path opacity="0.2" d="M236.932 265.15H232.19L242.905 155.572H249.464L236.932 265.15Z" fill="white"/>
<path d="M122.983 265.15H127.717L127.524 155.572H120.964L122.983 265.15Z" fill="#263238"/>
<path opacity="0.1" d="M122.983 265.15H127.717L127.524 155.572H120.964L122.983 265.15Z" fill="white"/>
<path d="M79.3531 265.15H74.6117L85.3262 155.572H91.8855L79.3531 265.15Z" fill="#263238"/>
<path opacity="0.2" d="M79.3531 265.15H74.6117L85.3262 155.572H91.8855L79.3531 265.15Z" fill="white"/>
<path d="M212.616 150.621H201.694L197.324 129.226H208.246L212.616 150.621Z" fill="#263238"/>
<path d="M227.108 146.213H179.716C178.143 146.213 176.934 144.927 177.03 143.351L178.841 113.295C178.937 111.719 180.295 110.433 181.868 110.433H229.259C230.832 110.433 232.042 111.719 231.945 113.295L230.135 143.351C230.046 144.927 228.681 146.213 227.108 146.213Z" fill="#263238"/>
<path d="M226.366 146.213H178.974C177.401 146.213 176.192 144.927 176.288 143.351L178.098 113.295C178.195 111.719 179.553 110.433 181.126 110.433H228.517C230.09 110.433 231.3 111.719 231.203 113.295L229.393 143.351C229.304 144.927 227.939 146.213 226.366 146.213Z" fill="#407BFF"/>
<path d="M178.974 144.726C178.625 144.726 178.314 144.592 178.091 144.354C177.868 144.116 177.75 143.789 177.772 143.44L179.582 113.384C179.627 112.589 180.339 111.92 181.133 111.92H228.525C228.873 111.92 229.185 112.053 229.408 112.291C229.63 112.529 229.749 112.856 229.727 113.206L227.916 143.261C227.872 144.057 227.159 144.726 226.366 144.726H178.974Z" fill="white"/>
<path opacity="0.2" d="M199.787 110.433L202.866 120.997L212.008 110.433H199.787Z" fill="black"/>
<path d="M126.129 84.8001C126.203 85.3725 126.559 85.8037 126.93 85.774C127.301 85.7442 127.546 85.2536 127.479 84.6812C127.412 84.1088 127.049 83.6776 126.678 83.7073C126.307 83.7371 126.062 84.2277 126.129 84.8001Z" fill="#263238"/>
<path d="M126.752 85.6328C126.752 85.6328 128.021 88.4279 129.319 89.7586C128.503 90.5838 127.012 90.2493 127.012 90.2493L126.752 85.6328Z" fill="#A02724"/>
<path d="M124.266 82.5997C124.214 82.6071 124.155 82.5997 124.103 82.5774C123.933 82.5105 123.851 82.3097 123.918 82.1388C124.608 80.4289 126.144 80.1464 126.21 80.139C126.381 80.0944 126.567 80.2282 126.596 80.4141C126.626 80.5999 126.507 80.7709 126.322 80.8006C126.255 80.8155 125.083 81.046 124.541 82.3915C124.489 82.5105 124.385 82.5848 124.266 82.5997Z" fill="#263238"/>
<path d="M109.315 93.7507L113.774 97.1704L119.851 101.832C119.629 102.069 119.362 103.229 119.258 104.054C119.05 105.764 118.835 107.065 122.619 108.076C123.428 108.292 124.118 108.931 124.237 109.764C124.385 110.775 123.769 112.024 120.267 112.596C116.208 113.265 112.943 112.143 110.376 110.901C108.892 110.187 108.855 109.266 109.515 107.756C111.378 103.489 110.473 98.0179 109.315 93.7507Z" fill="#B55B52"/>
<path d="M104.21 109.132C105.694 106.218 106.31 103.987 106.31 103.987C106.31 103.987 117.596 103.37 121.321 104.485C125.045 105.601 127.36 110.433 127.36 110.433L104.21 109.132Z" fill="#407BFF"/>
<path d="M108.922 117.532C108.64 118.365 108.336 119.383 108.046 120.327L107.215 123.219C106.688 125.16 106.191 127.092 105.791 129.025C105.375 130.958 105.049 132.876 104.833 134.749C104.618 136.615 104.529 138.452 104.67 140.08C104.722 140.905 104.856 141.633 105.011 142.273C105.056 142.421 105.093 142.585 105.145 142.726C105.197 142.86 105.249 142.986 105.293 143.128L105.301 143.15C105.301 143.157 105.316 143.18 105.286 143.128C105.249 143.053 105.204 142.986 105.16 142.919C105.056 142.771 105.004 142.704 104.922 142.607C104.774 142.444 104.663 142.355 104.589 142.302C104.44 142.198 104.418 142.221 104.448 142.25C104.537 142.325 104.811 142.496 105.145 142.644C105.479 142.793 105.872 142.949 106.295 143.09C107.134 143.366 108.069 143.633 109.018 143.878C112.854 144.852 117.024 145.596 121.098 146.466L120.964 151.617C118.753 151.915 116.602 152.086 114.405 152.16C112.209 152.234 110.005 152.227 107.727 152.049C106.585 151.967 105.427 151.848 104.218 151.617C103.609 151.506 102.978 151.372 102.311 151.194C101.643 151.008 100.923 150.792 100.077 150.368C99.6468 150.145 99.172 149.885 98.6155 149.439C98.3409 149.216 98.0367 148.941 97.7251 148.577C97.5618 148.376 97.4208 148.205 97.2502 147.945C97.1686 147.819 97.0944 147.692 97.0202 147.566L96.9237 147.387L96.4117 146.339C96.2559 145.99 96.1372 145.648 95.9962 145.298C95.5065 143.923 95.1726 142.57 94.9871 141.284C94.2822 136.117 94.8313 131.516 95.6029 127.025C96.0185 124.795 96.5082 122.602 97.0943 120.446C97.3837 119.368 97.6954 118.298 98.0367 117.227C98.378 116.142 98.7193 115.138 99.1497 113.971L108.922 117.532Z" fill="#B55B52"/>
<path d="M102.058 108.21C109.078 106.359 113.233 112.105 110.858 121.614C108.484 131.122 107.69 131.456 107.69 131.456L93.2285 129.04C95.0093 119.688 94.8683 110.106 102.058 108.21Z" fill="#407BFF"/>
<path d="M124.712 144.451L123.621 144.354C120.519 144.354 119.992 145.209 118.078 146.979L117.366 150.889C122.374 153.461 125.06 150.643 125.06 150.643H129.698L128.065 146.889C127.479 145.514 126.188 144.585 124.712 144.451Z" fill="#B55B52"/>
<path d="M107.401 86.3613C108.662 93.1337 109.055 97.1704 112.929 100.189C118.746 104.731 126.76 100.412 127.546 93.3641C128.251 87.0155 126.069 77.0092 119.072 75.2325C112.179 73.4781 106.139 79.5814 107.401 86.3613Z" fill="#B55B52"/>
<path d="M120.794 88.7253C125.617 88.3388 124.207 83.2464 122.716 82.1759C124.979 81.321 126.537 77.7304 124.355 75.2474C125.632 71.9095 121.988 67.8951 115.585 68.4898C110.91 68.9285 110.376 71.3966 110.376 71.3966C110.376 71.3966 104.767 70.8093 102.444 75.4407C100.456 79.4105 102.867 81.5292 102.867 81.5292C102.867 81.5292 98.6822 82.7483 99.8397 88.2421C101.079 94.1447 105.605 92.7769 105.605 92.7769C105.605 92.7769 104.589 98.1814 110.71 98.2632C116 98.3301 116.067 94.3603 116.067 94.3603C116.067 94.3603 122.931 93.6913 120.794 88.7253Z" fill="#263238"/>
<path d="M117.203 89.1193C117.781 90.6953 118.961 91.8848 120.133 92.4944C121.899 93.4013 123.25 91.5205 122.938 89.5951C122.656 87.863 121.15 85.6402 119.288 85.5287C117.462 85.4246 116.542 87.3203 117.203 89.1193Z" fill="#B55B52"/>
<path d="M189.139 256.638L195.736 253.954L191.076 238.075L184.48 240.759L189.139 256.638Z" fill="#B55B52"/>
<path opacity="0.2" d="M186.743 248.453L193.406 246.007L191.076 238.075L184.48 240.759L186.743 248.453Z" fill="black"/>
<path d="M195.165 251.263L187.626 253.895C187.351 253.992 187.21 254.252 187.285 254.527L188.999 260.63C189.177 261.262 189.963 261.649 190.586 261.418C193.198 260.459 194.244 259.931 197.472 258.541C199.453 257.686 204.187 255.612 206.762 254.096C209.277 252.609 207.764 250.074 206.539 250.49C203.638 251.471 198.882 252.111 196.47 251.278C196.025 251.13 195.565 251.122 195.165 251.263Z" fill="#263238"/>
<path d="M136.161 165.036C136.161 165.036 186.016 169.533 187.292 183.903C189.889 213.142 193.866 241.331 193.866 241.331L183.723 245.048C183.723 245.048 171.309 212.926 171.472 190.014C157.093 185.948 119.288 191.917 113.099 180.803C107.638 170.99 112.432 163.95 112.432 163.95L136.161 165.036Z" fill="#263238"/>
<path d="M182.988 247.36L195.617 243.086L195.068 237.317L180.829 241.919L182.988 247.36Z" fill="#407BFF"/>
<path d="M197.947 251.605C197.324 251.821 196.597 251.932 196.077 251.992C196.01 251.999 195.951 251.97 195.914 251.91C195.884 251.851 195.884 251.784 195.921 251.732C196.085 251.509 197.532 249.546 198.466 249.583C198.682 249.591 198.86 249.702 198.986 249.903C199.186 250.23 199.223 250.542 199.082 250.825C198.912 251.174 198.466 251.427 197.947 251.605ZM196.426 251.613C197.71 251.434 198.578 251.085 198.786 250.669C198.867 250.498 198.845 250.297 198.704 250.066C198.637 249.962 198.563 249.91 198.452 249.91C197.954 249.888 197.034 250.847 196.426 251.613Z" fill="#407BFF"/>
<path d="M196.114 251.984C196.092 251.992 196.062 251.999 196.04 251.992C195.981 251.984 195.936 251.947 195.914 251.895C195.877 251.813 195.053 249.933 195.506 249.041C195.625 248.803 195.825 248.647 196.092 248.587C196.411 248.52 196.671 248.617 196.827 248.862C197.235 249.539 196.723 251.293 196.196 251.925C196.166 251.955 196.144 251.97 196.114 251.984ZM196.085 248.936C195.951 248.981 195.862 249.063 195.795 249.189C195.528 249.717 195.855 250.847 196.099 251.479C196.515 250.78 196.804 249.479 196.537 249.041C196.485 248.959 196.396 248.862 196.159 248.914C196.129 248.922 196.107 248.929 196.085 248.936Z" fill="#407BFF"/>
<path d="M153.835 261.359L160.892 261.024L162.042 244.342L154.993 244.677L153.835 261.359Z" fill="#B55B52"/>
<path d="M161.055 259.812L153.071 259.56C152.782 259.552 152.552 259.746 152.529 260.028L151.943 266.34C151.884 266.994 152.477 267.633 153.145 267.648C155.928 267.685 157.256 267.566 160.765 267.678C162.925 267.745 167.176 268.064 170.129 267.693C173.023 267.328 172.637 264.399 171.346 264.288C168.297 264.035 164.208 261.924 162.257 260.281C161.908 259.998 161.478 259.827 161.055 259.812Z" fill="#263238"/>
<path d="M163.533 261.136C162.88 261.113 162.153 260.957 161.648 260.823C161.582 260.809 161.537 260.757 161.53 260.69C161.522 260.623 161.552 260.563 161.604 260.526C161.834 260.377 163.889 259.062 164.75 259.433C164.95 259.515 165.076 259.686 165.121 259.917C165.195 260.296 165.114 260.6 164.884 260.809C164.587 261.076 164.082 261.151 163.533 261.136ZM162.108 260.593C163.37 260.89 164.305 260.875 164.654 260.556C164.794 260.422 164.839 260.229 164.787 259.969C164.765 259.85 164.705 259.768 164.609 259.731C164.149 259.53 162.947 260.095 162.108 260.593Z" fill="#407BFF"/>
<path d="M161.686 260.824C161.663 260.824 161.634 260.816 161.611 260.801C161.559 260.771 161.53 260.719 161.53 260.667C161.522 260.578 161.433 258.526 162.168 257.857C162.368 257.679 162.606 257.605 162.88 257.649C163.207 257.701 163.414 257.887 163.466 258.17C163.607 258.95 162.502 260.4 161.782 260.801C161.737 260.824 161.715 260.824 161.686 260.824ZM162.747 257.969C162.606 257.961 162.487 258.006 162.383 258.103C161.945 258.504 161.849 259.671 161.849 260.348C162.479 259.842 163.221 258.735 163.132 258.229C163.118 258.132 163.066 258.013 162.821 257.976C162.799 257.976 162.769 257.976 162.747 257.969Z" fill="#407BFF"/>
<path opacity="0.2" d="M154.993 244.684L162.042 244.35L161.381 253.888L154.354 253.873L154.993 244.684Z" fill="black"/>
<path d="M119.599 164.278C119.599 164.278 173.32 172.5 172.467 184.892C170.931 207.202 163.466 250.78 163.466 250.78L152.885 250.929C152.885 250.929 150.385 206.22 154.347 189.925C141.14 189.925 103.861 189.464 98.7713 182.655C93.1544 175.139 98.9346 163.326 98.9346 163.326L119.599 164.278Z" fill="#263238"/>
<path d="M151.639 251.761L164.446 251.568L165.076 244.781L151.023 245.338L151.639 251.761Z" fill="#407BFF"/>
<path d="M129.06 107.452C124.734 106.612 105.227 106.85 105.227 106.85C101.198 106.745 97.7325 109.734 97.2799 113.748C96.5972 119.777 100.411 133.248 100.545 140.124C100.708 148.562 99.0978 151.982 98.9419 163.333L136.161 165.028C136.161 142.184 135.174 123.271 134.269 114.202C133.949 111.057 133.386 108.299 129.06 107.452Z" fill="#407BFF"/>
<path opacity="0.3" d="M129.06 107.452C124.734 106.612 105.227 106.85 105.227 106.85C101.198 106.745 97.7325 109.734 97.2799 113.748C96.5972 119.777 100.411 133.248 100.545 140.124C100.708 148.562 99.0978 151.982 98.9419 163.333L136.161 165.028C136.161 142.184 135.174 123.271 134.269 114.202C133.949 111.057 133.386 108.299 129.06 107.452Z" fill="white"/>
<path d="M134.157 114.655C135.322 118.67 136.495 122.788 137.704 126.825C138.913 130.869 140.145 134.906 141.548 138.734C141.889 139.708 142.26 140.615 142.616 141.552L143.187 142.867L143.262 143.031L143.299 143.113L143.314 143.157L143.321 143.18L143.291 143.128C143.121 142.823 142.935 142.622 142.816 142.503C142.557 142.258 142.46 142.236 142.445 142.243C142.438 142.273 142.69 142.444 143.002 142.592C143.313 142.749 143.707 142.897 144.122 143.046C144.961 143.336 145.903 143.596 146.86 143.856C150.741 144.845 154.978 145.603 159.103 146.488L158.97 151.64C156.729 151.944 154.547 152.115 152.314 152.182C150.088 152.257 147.847 152.234 145.54 152.056C144.382 151.967 143.202 151.833 141.956 151.595C141.332 151.476 140.687 151.335 139.989 151.127C139.292 150.919 138.542 150.666 137.615 150.145C137.14 149.863 136.606 149.528 135.983 148.889C135.678 148.577 135.337 148.153 135.033 147.618L134.781 147.15L133.942 145.559C133.445 144.518 132.918 143.47 132.48 142.436C131.56 140.355 130.766 138.288 129.965 136.214C129.216 134.132 128.466 132.058 127.783 129.977C126.411 125.799 125.172 121.651 124.096 117.354L134.157 114.655Z" fill="#B55B52"/>
<path d="M123.584 110.514C128.674 105.333 135.181 108.158 137.979 117.547C140.776 126.944 140.264 127.628 140.264 127.628L126.589 132.943C123.369 123.985 118.375 115.815 123.584 110.514Z" fill="#407BFF"/>
<path d="M162.717 144.451L161.626 144.354C158.524 144.354 157.998 145.209 156.083 146.978L155.371 150.889C160.379 153.461 163.066 150.643 163.066 150.643H167.703L166.071 146.889C165.484 145.514 164.201 144.585 162.717 144.451Z" fill="#B55B52"/>
<path d="M100.567 192.646H148.114C149.153 192.646 150.006 191.791 150.006 190.75V187.687C150.006 186.647 149.153 185.792 148.114 185.792H100.567C99.5281 185.792 98.6748 186.647 98.6748 187.687V190.75C98.6748 191.791 99.5281 192.646 100.567 192.646Z" fill="#407BFF"/>
<path d="M100.782 268.964H98.6748L101.101 192.646H104.017L100.782 268.964Z" fill="#407BFF"/>
<path opacity="0.4" d="M100.782 268.964H98.6748L101.101 192.646H104.017L100.782 268.964Z" fill="white"/>
<path d="M120.163 268.964H122.27L119.844 192.646H116.935L120.163 268.964Z" fill="#407BFF"/>
<path opacity="0.4" d="M120.163 268.964H122.27L119.844 192.646H116.935L120.163 268.964Z" fill="white"/>
<path d="M128.518 268.964H126.411L128.837 192.646H131.753L128.518 268.964Z" fill="#407BFF"/>
<path opacity="0.4" d="M128.518 268.964H126.411L128.837 192.646H131.753L128.518 268.964Z" fill="white"/>
<path d="M147.899 268.964H150.006L147.58 192.646H144.671L147.899 268.964Z" fill="#407BFF"/>
<path opacity="0.4" d="M147.899 268.964H150.006L147.58 192.646H144.671L147.899 268.964Z" fill="white"/>
<g opacity="0.3">
<path opacity="0.3" d="M101.101 192.646H104.017L103.876 195.887H100.997L101.101 192.646Z" fill="#407BFF"/>
<path opacity="0.3" d="M119.948 195.887H117.069L116.936 192.646H119.844L119.948 195.887Z" fill="#407BFF"/>
<path opacity="0.3" d="M131.746 192.646L131.612 195.887H128.733L128.837 192.646H131.746Z" fill="#407BFF"/>
<path opacity="0.3" d="M147.691 195.887H144.805L144.671 192.646H147.587L147.691 195.887Z" fill="#407BFF"/>
</g>
<path d="M288.931 99.3635H170.114C166.174 99.3635 163.147 96.1371 163.385 92.1896L167.918 16.8307C168.156 12.8832 171.576 9.65686 175.509 9.65686H294.325C298.265 9.65686 301.293 12.8832 301.055 16.8307L296.514 92.1896C296.284 96.1297 292.871 99.3635 288.931 99.3635Z" fill="#407BFF"/>
<path d="M186.016 83.4249L196.975 120.997L229.489 83.4249H186.016Z" fill="#407BFF"/>
<path opacity="0.1" d="M283.166 69.04H216.564C214.353 69.04 212.661 67.2335 212.794 65.0182L215.339 22.7779C215.473 20.5626 217.387 18.7561 219.599 18.7561H286.2C288.412 18.7561 290.103 20.5626 289.97 22.7779L287.425 65.0182C287.291 67.2261 285.377 69.04 283.166 69.04Z" fill="white"/>
<path opacity="0.1" d="M247.535 87.2608H180.925C178.714 87.2608 177.023 85.4544 177.156 83.239L179.701 40.9987C179.835 38.7834 181.749 36.9769 183.96 36.9769H250.562C252.773 36.9769 254.465 38.7834 254.331 40.9987L251.786 83.239C251.653 85.4469 249.739 87.2608 247.535 87.2608Z" fill="white"/>
<g opacity="0.5">
<path opacity="0.5" d="M180.042 16.2137C179.953 17.4329 179.004 18.4216 177.913 18.4216C176.822 18.4216 176.013 17.4329 176.102 16.2137C176.191 14.9945 177.141 14.0058 178.232 14.0058C179.323 14.0058 180.131 14.9871 180.042 16.2137Z" fill="white"/>
<path opacity="0.5" d="M187.336 16.2137C187.247 17.4329 186.297 18.4216 185.207 18.4216C184.116 18.4216 183.307 17.4329 183.396 16.2137C183.485 14.9945 184.435 14.0058 185.526 14.0058C186.609 13.9983 187.425 14.9871 187.336 16.2137Z" fill="white"/>
<path opacity="0.5" d="M194.623 16.2137C194.534 17.4329 193.584 18.4216 192.493 18.4216C191.402 18.4216 190.594 17.4329 190.683 16.2137C190.772 14.9945 191.722 14.0058 192.812 14.0058C193.903 13.9983 194.712 14.9871 194.623 16.2137Z" fill="white"/>
</g>
<path opacity="0.3" d="M288.041 98.6572H169.224C167.273 98.6572 165.47 97.8915 164.164 96.4939C162.85 95.0963 162.19 93.2453 162.309 91.2827L166.842 15.9237C167.087 11.8722 170.575 8.57147 174.618 8.57147H293.435C295.386 8.57147 297.189 9.33718 298.495 10.7348C299.809 12.1324 300.469 13.9835 300.35 15.946L295.817 91.305C295.579 95.364 292.084 98.6572 288.041 98.6572ZM174.626 8.95061C170.775 8.95061 167.451 12.0878 167.213 15.9535L162.68 91.3124C162.568 93.1709 163.192 94.9254 164.431 96.2486C165.67 97.5644 167.369 98.293 169.224 98.293H288.041C291.892 98.293 295.216 95.1558 295.453 91.2901L299.987 15.9312C300.098 14.0727 299.475 12.3182 298.236 10.995C296.996 9.67915 295.297 8.95061 293.442 8.95061H174.626Z" fill="#263238"/>
<path d="M223.702 54.6105C223.197 55.6884 222.737 56.5954 222.225 57.5618C221.728 58.5134 221.186 59.4426 220.66 60.3719C219.569 62.2229 218.441 64.0517 217.209 65.8285C216.601 66.7205 215.963 67.6052 215.325 68.4824C214.649 69.3448 214.011 70.222 213.291 71.062C211.934 72.7793 210.375 74.4073 208.758 75.9982C208.35 76.3922 207.897 76.7714 207.474 77.1579C207.044 77.5445 206.621 77.9311 206.124 78.2805L204.699 79.3584C204.699 79.3584 204.447 79.5443 204.261 79.6558C204.068 79.7822 203.868 79.8862 203.66 79.9903C203.252 80.191 202.814 80.3397 202.377 80.4438C201.501 80.6445 200.596 80.6445 199.735 80.4587C198.874 80.2728 198.043 79.8937 197.331 79.3361C196.975 79.0611 196.648 78.7414 196.374 78.3994L196.174 78.1392L196.077 78.0054L196.04 77.9459L195.899 77.7081L195.365 76.7416C195.209 76.4294 195.09 76.132 194.957 75.8272C194.437 74.6155 194.111 73.493 193.814 72.3704C193.265 70.1402 192.946 67.9843 192.731 65.8359C192.523 63.68 192.412 61.5836 192.449 59.3831C192.471 57.9707 193.643 56.8407 195.053 56.8704C196.203 56.8927 197.168 57.6733 197.465 58.7289L197.487 58.8182C198.563 62.6169 199.683 66.5719 201.13 69.9469C201.501 70.7647 201.872 71.5824 202.28 72.2069C202.377 72.3555 202.473 72.534 202.577 72.6678C202.673 72.7793 202.77 72.8908 202.859 73.0097L202.926 73.099L202.941 73.1213L202.903 73.0618C202.881 73.0246 202.852 72.9874 202.822 72.9503C202.703 72.8016 202.57 72.6603 202.421 72.5414C202.117 72.2961 201.768 72.1251 201.412 72.0359C201.049 71.9467 200.67 71.9392 200.292 72.021C200.099 72.0582 199.913 72.1251 199.728 72.2069C199.631 72.244 199.55 72.2961 199.461 72.3481C199.386 72.3853 199.245 72.5042 199.334 72.4225L200.262 71.5155C200.574 71.233 200.878 70.891 201.182 70.5639C201.486 70.2294 201.798 69.9172 202.095 69.5678C204.469 66.7651 206.658 63.5834 208.706 60.2678C209.722 58.61 210.724 56.9225 211.696 55.2126L213.128 52.6405L214.486 50.1203L214.553 49.9865C215.896 47.4961 219.005 46.5668 221.491 47.9124C223.902 49.2134 224.837 52.1647 223.702 54.6105Z" fill="#263238"/>
<path d="M193.146 59.0784L189.533 57.0117L193.421 53.027C193.421 53.027 195.046 54.1868 196.574 55.8743C197.539 56.9373 197.25 58.6174 195.981 59.2122C195.083 59.6433 194.022 59.5913 193.146 59.0784Z" fill="#FFC3BD"/>
<path d="M188.709 52.7446L190.675 51.3396C191.21 50.9604 191.952 51.0719 192.345 51.5923L193.421 53.0271L189.533 57.0117L188.308 54.2165C188.078 53.6961 188.249 53.0791 188.709 52.7446Z" fill="#FFC3BD"/>
<path d="M215.918 51.2801C216.497 49.3026 218.181 47.8232 220.207 47.4515C221.795 47.1765 222.537 46.9312 224.577 46.7825C228.087 46.5297 233.86 46.7602 237.852 47.0278C240.167 47.1839 242.534 47.511 244.418 47.8158L244.485 47.8232C246.563 48.1652 247.988 50.1501 247.631 52.2168C246.704 57.5841 243.981 66.9213 243.684 75.7307C243.298 87.298 243.469 93.9589 243.268 96.7467L213.551 96.1743C211.481 67.8877 214.056 57.6808 215.918 51.2801Z" fill="white"/>
<path d="M245.272 47.3772L245.198 47.3698C243.209 47.0427 240.723 46.6933 238.275 46.5297C237.852 46.5 237.407 46.4777 236.954 46.4479C235.655 51.8376 227.916 60.8849 225.572 74.6155C224.666 63.1448 223.969 51.1537 225.297 46.4702C224.496 46.4554 220.63 46.723 219.02 47.0055C216.89 47.3995 215.087 49.1019 214.316 51.3916C212.49 56.7738 209.01 68.8319 211.155 98.4788H244.181C244.404 95.535 243.625 89.2606 244.819 79.6558C245.969 70.341 247.624 57.6808 248.596 52.016C248.967 49.8379 247.468 47.7415 245.272 47.3772Z" fill="#263238"/>
<path opacity="0.2" d="M224.852 96.94C224.748 96.94 224.666 96.8582 224.651 96.7541C223.954 88.3908 225.26 76.3848 225.267 76.2585C225.282 76.147 225.379 76.0726 225.483 76.08C225.594 76.0949 225.668 76.1916 225.661 76.2956C225.646 76.4146 224.347 88.3908 225.045 96.7095C225.052 96.821 224.971 96.9177 224.867 96.9251C224.859 96.94 224.859 96.94 224.852 96.94Z" fill="white"/>
<path opacity="0.3" d="M244.114 59.1453C242.89 64.706 243.543 72.4076 244.841 79.4328C245.821 71.5453 247.149 61.3086 248.114 54.9674C246.771 54.0678 245.086 54.7072 244.114 59.1453Z" fill="black"/>
<path d="M225.208 46.7453C229.059 45.8978 229.727 43.5263 229.452 40.8947C229.393 40.2553 229.282 39.5863 229.133 38.9321L233.949 34.9995L237.481 32.1151C236.524 36.3822 235.455 44.1582 238.364 47.0724C238.364 47.0724 235.997 50.9752 229.386 50.4995C223.806 50.0831 225.208 46.7453 225.208 46.7453Z" fill="#FFC3BD"/>
<path d="M231.062 49.5033L229.994 50.5218L233.407 51.8079L232.962 50.5069L231.062 49.5033Z" fill="#E0E0E0"/>
<path d="M233.674 53.6218C233.674 53.6218 232.339 50.217 231.062 49.5033C235.507 48.3064 237.674 45.8383 237.674 45.8383L239.699 46.6412C239.699 46.6412 240.337 50.5515 233.674 53.6218Z" fill="#F5F5F5"/>
<path d="M229.193 49.2431L229.994 50.5218L226.403 50.834L227.122 49.6966L229.193 49.2431Z" fill="#E0E0E0"/>
<path d="M224.6 52.6628C224.6 52.6628 226.492 50.5292 229.193 49.2431C227.241 48.6558 227.122 45.9647 227.122 45.9647L225.23 46.329C225.23 46.329 221.758 49.7189 224.6 52.6628Z" fill="#F5F5F5"/>
<path opacity="0.2" d="M229.133 38.9247C229.282 39.5789 229.393 40.2479 229.452 40.8873C231.255 40.5602 233.652 38.6794 233.897 36.8357C233.986 36.1443 234.001 35.4753 233.949 34.9921L229.133 38.9247Z" fill="black"/>
<path d="M223.294 19.4623C221.572 21.5884 221.735 29.2455 225.379 29.3347C229.022 29.4314 226.425 15.604 223.294 19.4623Z" fill="#263238"/>
<path d="M238.987 25.0453C238.623 30.8513 238.698 34.2635 235.774 37.2669C231.374 41.7868 224.251 39.1849 222.886 33.4086C221.654 28.2048 222.463 19.5887 228.117 17.2321C233.697 14.9053 239.351 19.2393 238.987 25.0453Z" fill="#FFC3BD"/>
<path d="M236.138 20.2057C232.495 23.8261 237.229 26.4801 235.381 28.4352C238.816 30.2343 237.555 31.5575 237.555 31.5575C237.555 31.5575 236.976 32.9477 237.592 34.6203C241.458 33.6167 248.648 20.7335 240.805 18.7487C236.086 20.8599 236.138 20.2057 236.138 20.2057Z" fill="#263238"/>
<path d="M237.629 22.8076C234.179 23.3429 229.838 21.6925 227.145 20.2949C224.451 18.8973 224.058 21.5364 225.045 22.3393C223.316 22.3988 221.127 21.0235 221.669 17.9681C222.166 15.1803 225.809 12.5487 231.003 14.9053C234.676 16.5705 239.202 14.3774 240.961 16.3029C242.727 18.2283 239.929 22.4508 237.629 22.8076Z" fill="#263238"/>
<path d="M239.981 19.0312C242.296 18.719 242.4 17.2619 241.747 14.6897C244.255 18.2506 243.254 19.3434 241.74 20.2058C240.1 19.6482 239.981 19.0312 239.981 19.0312Z" fill="#263238"/>
<path d="M240.545 29.4908C239.981 30.7472 238.972 31.6616 238.022 32.0853C236.59 32.7321 235.863 31.4088 236.249 29.8551C236.598 28.4575 237.763 26.428 239.21 26.4429C240.627 26.4578 241.191 28.0561 240.545 29.4908Z" fill="#FFC3BD"/>
<path d="M229.942 26.7997C229.942 27.2755 229.69 27.6547 229.385 27.6621C229.081 27.6621 228.829 27.283 228.829 26.8146C228.829 26.3388 229.081 25.9597 229.385 25.9523C229.697 25.9448 229.942 26.324 229.942 26.7997Z" fill="#263238"/>
<path d="M224.629 26.8444C224.629 27.3201 224.377 27.6993 224.073 27.7067C223.769 27.7067 223.516 27.3276 223.516 26.8592C223.516 26.3834 223.769 26.0043 224.073 25.9969C224.377 25.9894 224.629 26.3686 224.629 26.8444Z" fill="#263238"/>
<path d="M226.596 27.0079C226.596 27.0079 225.52 29.7436 224.34 31.0669C225.171 31.84 226.588 31.4683 226.588 31.4683L226.596 27.0079Z" fill="#ED847E"/>
<path d="M228.503 32.7247C230.335 32.4868 231.189 31.2081 231.226 31.1487C231.27 31.0818 231.248 31 231.181 30.9554C231.114 30.9108 231.033 30.9331 230.988 30.9925C230.981 31.0074 230.009 32.4719 227.946 32.4868C227.872 32.4868 227.812 32.5463 227.812 32.628C227.812 32.7024 227.879 32.7693 227.953 32.7618C228.154 32.7618 228.332 32.747 228.503 32.7247Z" fill="#263238"/>
<path d="M232.517 24.9189C232.561 24.9115 232.606 24.8966 232.643 24.8669C232.762 24.7777 232.784 24.5993 232.695 24.4803C231.775 23.2611 230.491 23.3429 230.439 23.3503C230.298 23.3503 230.179 23.4916 230.194 23.6477C230.209 23.8038 230.343 23.9153 230.498 23.9005C230.55 23.9005 231.537 23.8484 232.257 24.8074C232.324 24.8966 232.42 24.9338 232.517 24.9189Z" fill="#263238"/>
<path d="M222.477 25.1419C222.566 25.1271 222.641 25.075 222.685 24.9933C223.227 23.8707 224.243 23.722 224.251 23.722C224.399 23.6997 224.503 23.5659 224.481 23.4098C224.459 23.2611 224.318 23.1496 224.169 23.1719C224.117 23.1793 222.856 23.3652 222.188 24.7405C222.121 24.8743 222.181 25.0453 222.314 25.1122C222.374 25.1419 222.426 25.1494 222.477 25.1419Z" fill="#263238"/>
<path d="M249.457 50.7299C250.354 52.6405 251.119 54.4321 251.853 56.3129C252.595 58.1714 253.263 60.0671 253.916 61.9628C255.177 65.7839 256.276 69.6793 257.055 73.7606C257.225 74.7939 257.418 75.805 257.544 76.868L257.648 77.656L257.7 78.05L257.723 78.2508L257.745 78.5258C257.804 79.2618 257.819 80.0275 257.737 80.8304C257.582 82.4287 257.003 84.1385 256.053 85.5361C255.118 86.9412 253.886 87.9745 252.684 88.6956C251.475 89.4241 250.273 89.8925 249.108 90.2047C247.943 90.5244 246.808 90.7177 245.695 90.8143C244.582 90.9184 243.498 90.9407 242.422 90.8961C241.332 90.8515 240.33 90.7474 239.173 90.5541C237.785 90.3237 236.843 89.0004 237.08 87.6102C237.258 86.5546 238.06 85.7517 239.046 85.5361L239.314 85.4767C240.085 85.3057 241.02 85.0975 241.859 84.8745C242.712 84.644 243.535 84.3913 244.322 84.1088C245.88 83.5438 247.297 82.793 248.069 82.0273C248.455 81.6481 248.64 81.2987 248.715 81.046C248.781 80.7858 248.759 80.5851 248.722 80.2505C248.707 80.087 248.67 79.8863 248.611 79.6558L248.344 78.444C248.173 77.5891 247.928 76.7193 247.706 75.8496C247.238 74.11 246.719 72.3556 246.125 70.6086C245.569 68.8541 244.923 67.1071 244.285 65.3601C243.639 63.6131 242.957 61.8661 242.267 60.1266C241.569 58.4093 240.849 56.6177 240.159 54.9896L240.13 54.9153C239.024 52.3059 240.241 49.2951 242.838 48.1875C245.368 47.1244 248.292 48.2618 249.457 50.7299Z" fill="#263238"/>
<path d="M236.783 87.6623L233.518 89.2234L239.172 91.2306C239.172 91.2306 242.942 90.0263 241.109 87.9299L240.093 87.6102C238.46 87.1047 237.659 87.1642 236.783 87.6623Z" fill="#FFC3BD"/>
<path d="M233.949 93.2452L236.435 93.721C237.162 93.8623 237.896 93.5129 238.26 92.8661L239.165 91.238L233.511 89.2308L232.732 90.7846C232.22 91.7956 232.828 93.0296 233.949 93.2452Z" fill="#FFC3BD"/>
</g>
<defs>
<clipPath id="clip0">
<rect width="371" height="277" fill="white" transform="translate(0.322632)"/>
</clipPath>
</defs>
</svg>
